<?xml version="1.0" encoding="UTF-8"?>
<svg id="Layer_2" data-name="Layer 2" xmlns="http://www.w3.org/2000/svg" xmlns:xlink="http://www.w3.org/1999/xlink" viewBox="0 0 300 300">
  <defs>
    <style>
      .cls-1 {
        fill: url(#linear-gradient-2);
      }

      .cls-2 {
        fill: #fff;
      }

      .cls-3 {
        fill: rgba(255, 255, 255, .3);
      }

      .cls-4 {
        fill: #e1dceb;
      }

      .cls-5, .cls-6 {
        fill: #ccc6d9;
      }

      .cls-7 {
        clip-path: url(#clippath);
      }

      .cls-8 {
        fill: #d5d5d5;
      }

      .cls-9 {
        fill: none;
      }

      .cls-10 {
        fill: url(#linear-gradient);
      }

      .cls-6, .cls-11 {
        fill-rule: evenodd;
      }

      .cls-12 {
        fill: #e3e3e3;
      }
    </style>
    <clipPath id="clippath">
      <rect class="cls-9" width="300" height="300"/>
    </clipPath>
    <linearGradient id="linear-gradient" x1="149.07" y1="532.07" x2="151.53" y2="110.65" gradientTransform="translate(0 522) scale(1 -1)" gradientUnits="userSpaceOnUse">
      <stop offset="0" stop-color="#f2f2f2"/>
      <stop offset="1" stop-color="#efefef"/>
    </linearGradient>
    <linearGradient id="linear-gradient-2" x1="151.27" y1="458.44" x2="151.27" y2="303.41" gradientTransform="translate(0 522) scale(1 -1)" gradientUnits="userSpaceOnUse">
      <stop offset="0" stop-color="#fff"/>
      <stop offset=".72" stop-color="#fafafa"/>
    </linearGradient>
  </defs>
  <g id="popup">
    <g class="cls-7">
      <g>
        <path class="cls-10" d="m150,269c66.27,0,120-53.73,120-120S216.27,29,150,29,30,82.73,30,149s53.73,120,120,120Z"/>
        <rect class="cls-1" x="89" y="63.56" width="124.54" height="155.03" rx="16" ry="16"/>
        <rect x="100" y="83.56" width="50" height="9.8" rx="4.9" ry="4.9"/>
        <rect class="cls-8" x="100" y="111.36" width="100" height="9.8" rx="4.9" ry="4.9"/>
        <rect class="cls-8" x="100" y="139.16" width="100" height="9.8" rx="4.9" ry="4.9"/>
        <rect class="cls-8" x="100" y="166.96" width="100" height="9.8" rx="4.9" ry="4.9"/>
        <path class="cls-8" d="m104.9,194.76h90.2c2.71,0,4.9,2.19,4.9,4.9h0c0,2.71-2.19,4.9-4.9,4.9h-90.2c-2.71,0-4.9-2.19-4.9-4.9h0c0-2.71,2.19-4.9,4.9-4.9Z"/>
        <path class="cls-2" d="m288.15,46.42h-60.08c-2.8,0-5.07,2.39-5.07,5.33v29.72c0,2.95,2.27,5.34,5.07,5.34h60.08c2.8,0,5.07-2.39,5.07-5.34v-29.72c0-2.95-2.27-5.33-5.07-5.33Z"/>
        <path class="cls-5" d="m238,73c3.31,0,6-2.69,6-6s-2.69-6-6-6-6,2.69-6,6,2.69,6,6,6Z"/>
        <path class="cls-8" d="m258,61h20c3.31,0,6,2.69,6,6h0c0,3.31-2.69,6-6,6h-20c-3.31,0-6-2.69-6-6h0c0-3.31,2.69-6,6-6Z"/>
        <path class="cls-6" d="m185.11,225.56c12.88,0,24.85-3.9,34.8-10.57l40.7,38.85,14.76-17.12-39.27-37.49c7.25-10.21,11.52-22.69,11.52-36.16,0-34.52-27.98-62.5-62.5-62.5s-62.5,27.98-62.5,62.5,27.98,62.5,62.5,62.5Zm53.31-62.5c0,29.22-23.69,52.91-52.91,52.91s-52.91-23.69-52.91-52.91,23.69-52.91,52.91-52.91,52.91,23.69,52.91,52.91Z"/>
        <path class="cls-3" d="m185.5,217c30.1,0,54.5-24.18,54.5-54s-24.4-54-54.5-54-54.5,24.18-54.5,54,24.4,54,54.5,54Z"/>
        <path d="m194.92,163l13.19-13.14c1.24-1.3,1.91-3.03,1.89-4.82-.02-1.79-.75-3.49-2.02-4.76-1.27-1.26-2.99-1.99-4.79-2.01-1.8-.02-3.54.65-4.85,1.88l-13.22,13.14-13.19-13.14c-.63-.67-1.4-1.2-2.24-1.57-.85-.37-1.76-.57-2.68-.58s-1.84.16-2.7.5c-.86.35-1.63.86-2.29,1.51-.65.65-1.17,1.42-1.52,2.27-.35.85-.52,1.76-.51,2.68.01.92.21,1.82.58,2.67.37.84.91,1.6,1.58,2.23l13.21,13.14-13.21,13.14c-.67.63-1.21,1.39-1.58,2.23-.37.84-.57,1.75-.58,2.67-.01.92.16,1.83.51,2.68.35.85.86,1.62,1.52,2.27.65.65,1.43,1.16,2.29,1.51.86.35,1.77.52,2.7.5s1.84-.21,2.68-.58c.85-.37,1.61-.9,2.24-1.57l13.22-13.14,13.22,13.14c1.32,1.15,3.03,1.77,4.79,1.71,1.76-.06,3.43-.78,4.67-2.01,1.24-1.24,1.96-2.9,2.01-4.65.05-1.75-.57-3.45-1.74-4.76l-13.19-13.14Z"/>
        <path class="cls-4" d="m260.6,253.84l14.76-17.13,2.22,2.12c2.16,2.06,3.45,4.93,3.59,8,.14,3.06-.88,6.06-2.83,8.33-1.96,2.27-4.69,3.63-7.6,3.78-2.91.15-5.76-.92-7.91-2.98l-2.22-2.12h0Z"/>
        <path class="cls-11" d="m56.31,91.17c-.02-1.43-.2-2.86-.55-4.31-1.26-5.08-6.85-8.34-12.81-9.11-5.96-.77-12.15.98-14.54,5.4-1.37,2.53-1.55,4.71-1,6.54.56,1.83,1.87,3.34,3.66,4.52,4.99,3.29,13.72,3.96,17.71,2.58,1.84-.64,3.64-1.4,5.4-2.28-1,5.75-4.74,11.19-9.72,16.09-10.84,10.66-27.65,18.75-36.81,21.73-.49.16-.77.7-.61,1.22.15.51.68.8,1.17.64,9.34-3.03,26.48-11.3,37.53-22.17,5.71-5.62,9.78-11.94,10.47-18.58,12.9-7.2,23.5-20.27,32.56-31.26.34-.4.29-1.02-.1-1.37-.39-.35-.98-.31-1.32.1-8.69,10.55-18.78,23.09-31.04,30.26Zm-1.88,1.04c.07-1.6-.08-3.23-.49-4.87-1.09-4.4-6.07-7-11.23-7.66-3.16-.41-6.41-.07-8.96,1.12-1.6.75-2.92,1.83-3.72,3.31-1.04,1.93-1.27,3.59-.84,4.99.43,1.41,1.49,2.55,2.88,3.46,4.55,3,12.5,3.63,16.13,2.38,2.14-.74,4.22-1.66,6.24-2.73Z"/>
        <circle class="cls-12" cx="285" cy="184" r="6"/>
        <path class="cls-6" d="m58.38,225.39c1.07-.4,2.2-.93,3.07-1.71,1.03-.92,1.45-2.1,1.73-3.34.36-1.6.51-3.3.95-4.9.16-.6.47-.82.61-.92.34-.25.68-.32,1-.29.38.03.91.18,1.25.86.05.1.11.24.16.45.03.15.05.61.09.8.08.47.15.94.22,1.41.22,1.57.34,2.9,1.03,4.34.93,1.96,1.86,3.15,3.13,3.68,1.22.51,2.69.42,4.56.01.18-.05.35-.08.53-.12.82-.15,1.61.42,1.77,1.28.16.86-.36,1.7-1.18,1.89-.17.04-.34.08-.5.11-2.53.66-5.45,3.01-7.15,5.06-.52.63-1.29,2.41-2.07,3.54-.58.83-1.23,1.38-1.77,1.58-.37.13-.67.11-.93.04-.37-.1-.68-.31-.91-.64-.13-.18-.25-.43-.3-.74-.03-.15-.03-.53-.03-.71-.16-.58-.35-1.14-.5-1.72-.34-1.39-1-2.27-1.79-3.43-.74-1.09-1.53-1.77-2.7-2.32-.15-.04-1.37-.35-1.8-.53-.63-.26-.93-.71-1.04-.95-.19-.4-.2-.76-.17-1.05.05-.44.24-.81.57-1.11.2-.19.51-.37.92-.46.32-.07,1.15-.11,1.27-.11Zm7.17-2.26c.06.13.12.27.18.4,1.36,2.87,2.89,4.47,4.74,5.24l.06.03c-1.24.97-2.36,2.05-3.22,3.09-.35.43-.82,1.32-1.33,2.23-.46-1.57-1.21-2.68-2.15-4.07-.72-1.06-1.48-1.86-2.41-2.51.72-.39,1.41-.85,2.01-1.38,1-.89,1.66-1.91,2.11-3.03Z"/>
      </g>
    </g>
  </g>
</svg>